<svg xmlns="http://www.w3.org/2000/svg" xmlns:xlink="http://www.w3.org/1999/xlink" height="592.2" viewBox="0.0 0.0 621.9 592.2" width="622.8000000000001">
<g class="graph" id="graph0" transform="scale(1.8 1.8) rotate(0) translate(4 325)">
<title>G</title>
<polygon fill="#ffffff" points="-4,4 -4,-325 341.5,-325 341.5,4 -4,4" stroke="transparent" />
<text fill="#444443" font-family="Arial" font-size="14.00" text-anchor="middle" x="168.75" y="-305.8">Decision Tree 1</text>
<g class="cluster" id="clust7">
<title>cluster_legend</title>
</g>

<g class="node" id="node1">
<title>node3</title>
<text fill="#444443" font-family="Helvetica,sans-Serif" font-size="12.00" text-anchor="start" x="44.5" y="-121.4">REE@0.99</text>
</g>

<g class="node" id="node2">
<title>node4</title>
<text fill="#444443" font-family="Helvetica,sans-Serif" font-size="12.00" text-anchor="start" x="119.5" y="-121.4">TCP@3.61</text>
</g>


<g class="node" id="node7">
<title>leaf11</title>
<polygon fill="none" points="44,-65 0,-65 0,-6 44,-6 44,-65" stroke="#444443" stroke-width="0" />
<svg height="51px" preserveAspectRatio="xMinYMin meet" version="1.1" viewBox="0 0 47.84511 68.57113" width="36px" x="4" y="-60.5">
 <defs>
  <style type="text/css">
*{stroke-linecap:butt;stroke-linejoin:round;}
  </style>
 </defs>
 <g id="figure_1">
  <g id="patch_1">
   <path d="M 0 68.57113  L 47.84511 68.57113  L 47.84511 0  L 0 0  z " style="fill:#ffffff;" />
  </g>
  <g id="axes_1">
   <g id="patch_2">
    <path d="M 47.84511 24.016146  C 47.84511 21.178476 47.338841 18.363432 46.350144 15.703573  C 45.361447 13.043714 43.906088 10.581457 42.052599 8.432748  C 40.19911 6.284039 37.977048 4.483144 35.49105 3.114866  C 33.005053 1.746587 30.294762 0.832745 27.487806 0.416373  C 24.680849 -0 21.821989 0.087736 19.045847 0.67545  C 16.269705 1.263164 13.620552 2.341483 11.223137 3.859629  C 8.825721 5.377776 6.718274 7.311541 5.000033 9.569863  C 3.281793 11.828186 1.98016 14.375053 1.156427 17.090534  C 0.332695 19.806015 -0 22.646806 0.174008 25.479136  C 0.348016 28.311466 1.025952 31.090168 2.175894 33.684393  C 3.325835 36.278619 4.929443 38.646999 6.911204 40.678006  C 8.892965 42.709014 11.221277 44.370262 13.786501 45.583522  C 16.351724 46.796783 19.112951 47.542708 21.940158 47.786172  C 24.767364 48.029637 27.615464 47.766758 30.350343 47.009915  C 33.085221 46.253072 35.663265 45.014335 37.963075 43.352034  C 40.262885 41.689733 42.247787 39.630377 43.824312 37.27094  L 23.98711 24.016146  L 47.84511 24.016146  z " style="fill:#fefebb;stroke:#444443;stroke-linejoin:miter;stroke-width:0.5;" />
   </g>
   <g id="patch_3">
    <path d="M 43.824312 37.27094  C 45.127946 35.319915 46.136646 33.187198 46.817792 30.941758  C 47.498939 28.696318 47.84511 26.362624 47.84511 24.016146  L 23.98711 24.016146  L 43.824312 37.27094  z " style="fill:#a1dab4;stroke:#444443;stroke-linejoin:miter;stroke-width:0.5;" />
   </g>
   <g id="text_1">
    
    <defs>
     <path d="M 54.890625 33.015625  L 54.890625 0  L 45.90625 0  L 45.90625 32.71875  Q 45.90625 40.484375 42.875 44.328125  Q 39.84375 48.1875 33.796875 48.1875  Q 26.515625 48.1875 22.3125 43.546875  Q 18.109375 38.921875 18.109375 30.90625  L 18.109375 0  L 9.078125 0  L 9.078125 54.6875  L 18.109375 54.6875  L 18.109375 46.1875  Q 21.34375 51.125 25.703125 53.5625  Q 30.078125 56 35.796875 56  Q 45.21875 56 50.046875 50.171875  Q 54.890625 44.34375 54.890625 33.015625  z " id="DejaVuSans-110" />
     <path d="M 10.59375 45.40625  L 73.1875 45.40625  L 73.1875 37.203125  L 10.59375 37.203125  z M 10.59375 25.484375  L 73.1875 25.484375  L 73.1875 17.1875  L 10.59375 17.1875  z " id="DejaVuSans-61" />
     <path d="M 40.578125 39.3125  Q 47.65625 37.796875 51.625 33  Q 55.609375 28.21875 55.609375 21.1875  Q 55.609375 10.40625 48.1875 4.484375  Q 40.765625 -1.421875 27.09375 -1.421875  Q 22.515625 -1.421875 17.65625 -0.515625  Q 12.796875 0.390625 7.625 2.203125  L 7.625 11.71875  Q 11.71875 9.328125 16.59375 8.109375  Q 21.484375 6.890625 26.8125 6.890625  Q 36.078125 6.890625 40.9375 10.546875  Q 45.796875 14.203125 45.796875 21.1875  Q 45.796875 27.640625 41.28125 31.265625  Q 36.765625 34.90625 28.71875 34.90625  L 20.21875 34.90625  L 20.21875 43.015625  L 29.109375 43.015625  Q 36.375 43.015625 40.234375 45.921875  Q 44.09375 48.828125 44.09375 54.296875  Q 44.09375 59.90625 40.109375 62.90625  Q 36.140625 65.921875 28.71875 65.921875  Q 24.65625 65.921875 20.015625 65.03125  Q 15.375 64.15625 9.8125 62.3125  L 9.8125 71.09375  Q 15.4375 72.65625 20.34375 73.4375  Q 25.25 74.21875 29.59375 74.21875  Q 40.828125 74.21875 47.359375 69.109375  Q 53.90625 64.015625 53.90625 55.328125  Q 53.90625 49.265625 50.4375 45.09375  Q 46.96875 40.921875 40.578125 39.3125  z " id="DejaVuSans-51" />
     <path d="M 19.1875 8.296875  L 53.609375 8.296875  L 53.609375 0  L 7.328125 0  L 7.328125 8.296875  Q 12.9375 14.109375 22.625 23.890625  Q 32.328125 33.6875 34.8125 36.53125  Q 39.546875 41.84375 41.421875 45.53125  Q 43.3125 49.21875 43.3125 52.78125  Q 43.3125 58.59375 39.234375 62.25  Q 35.15625 65.921875 28.609375 65.921875  Q 23.96875 65.921875 18.8125 64.3125  Q 13.671875 62.703125 7.8125 59.421875  L 7.8125 69.390625  Q 13.765625 71.78125 18.9375 73  Q 24.125 74.21875 28.421875 74.21875  Q 39.75 74.21875 46.484375 68.546875  Q 53.21875 62.890625 53.21875 53.421875  Q 53.21875 48.921875 51.53125 44.890625  Q 49.859375 40.875 45.40625 35.40625  Q 44.1875 33.984375 37.640625 27.21875  Q 31.109375 20.453125 19.1875 8.296875  z " id="DejaVuSans-50" />
    </defs>
    <g style="fill:#444443;" transform="translate(11.638126 56.62138)scale(0.09 -0.09)">
     <use xlink:href="#DejaVuSans-110" />
     <use x="63.378906" xlink:href="#DejaVuSans-61" />
     <use x="147.167969" xlink:href="#DejaVuSans-51" />
     <use x="210.791016" xlink:href="#DejaVuSans-50" />
    </g>
    
    <defs>
     <path d="M 48.78125 52.59375  L 48.78125 44.1875  Q 44.96875 46.296875 41.140625 47.34375  Q 37.3125 48.390625 33.40625 48.390625  Q 24.65625 48.390625 19.8125 42.84375  Q 14.984375 37.3125 14.984375 27.296875  Q 14.984375 17.28125 19.8125 11.734375  Q 24.65625 6.203125 33.40625 6.203125  Q 37.3125 6.203125 41.140625 7.25  Q 44.96875 8.296875 48.78125 10.40625  L 48.78125 2.09375  Q 45.015625 0.34375 40.984375 -0.53125  Q 36.96875 -1.421875 32.421875 -1.421875  Q 20.0625 -1.421875 12.78125 6.34375  Q 5.515625 14.109375 5.515625 27.296875  Q 5.515625 40.671875 12.859375 48.328125  Q 20.21875 56 33.015625 56  Q 37.15625 56 41.109375 55.140625  Q 45.0625 54.296875 48.78125 52.59375  z " id="DejaVuSans-99" />
     <path d="M 9.421875 75.984375  L 18.40625 75.984375  L 18.40625 0  L 9.421875 0  z " id="DejaVuSans-108" />
     <path d="M 34.28125 27.484375  Q 23.390625 27.484375 19.1875 25  Q 14.984375 22.515625 14.984375 16.5  Q 14.984375 11.71875 18.140625 8.90625  Q 21.296875 6.109375 26.703125 6.109375  Q 34.1875 6.109375 38.703125 11.40625  Q 43.21875 16.703125 43.21875 25.484375  L 43.21875 27.484375  z M 52.203125 31.203125  L 52.203125 0  L 43.21875 0  L 43.21875 8.296875  Q 40.140625 3.328125 35.546875 0.953125  Q 30.953125 -1.421875 24.3125 -1.421875  Q 15.921875 -1.421875 10.953125 3.296875  Q 6 8.015625 6 15.921875  Q 6 25.140625 12.171875 29.828125  Q 18.359375 34.515625 30.609375 34.515625  L 43.21875 34.515625  L 43.21875 35.40625  Q 43.21875 41.609375 39.140625 45  Q 35.0625 48.390625 27.6875 48.390625  Q 23 48.390625 18.546875 47.265625  Q 14.109375 46.140625 10.015625 43.890625  L 10.015625 52.203125  Q 14.9375 54.109375 19.578125 55.046875  Q 24.21875 56 28.609375 56  Q 40.484375 56 46.34375 49.84375  Q 52.203125 43.703125 52.203125 31.203125  z " id="DejaVuSans-97" />
     <path d="M 44.28125 53.078125  L 44.28125 44.578125  Q 40.484375 46.53125 36.375 47.5  Q 32.28125 48.484375 27.875 48.484375  Q 21.1875 48.484375 17.84375 46.4375  Q 14.5 44.390625 14.5 40.28125  Q 14.5 37.15625 16.890625 35.375  Q 19.28125 33.59375 26.515625 31.984375  L 29.59375 31.296875  Q 39.15625 29.25 43.1875 25.515625  Q 47.21875 21.78125 47.21875 15.09375  Q 47.21875 7.46875 41.1875 3.015625  Q 35.15625 -1.421875 24.609375 -1.421875  Q 20.21875 -1.421875 15.453125 -0.5625  Q 10.6875 0.296875 5.421875 2  L 5.421875 11.28125  Q 10.40625 8.6875 15.234375 7.390625  Q 20.0625 6.109375 24.8125 6.109375  Q 31.15625 6.109375 34.5625 8.28125  Q 37.984375 10.453125 37.984375 14.40625  Q 37.984375 18.0625 35.515625 20.015625  Q 33.0625 21.96875 24.703125 23.78125  L 21.578125 24.515625  Q 13.234375 26.265625 9.515625 29.90625  Q 5.8125 33.546875 5.8125 39.890625  Q 5.8125 47.609375 11.28125 51.796875  Q 16.75 56 26.8125 56  Q 31.78125 56 36.171875 55.265625  Q 40.578125 54.546875 44.28125 53.078125  z " id="DejaVuSans-115" />
     <path id="DejaVuSans-32" />
     <path d="M 31.78125 66.40625  Q 24.171875 66.40625 20.328125 58.90625  Q 16.5 51.421875 16.5 36.375  Q 16.5 21.390625 20.328125 13.890625  Q 24.171875 6.390625 31.78125 6.390625  Q 39.453125 6.390625 43.28125 13.890625  Q 47.125 21.390625 47.125 36.375  Q 47.125 51.421875 43.28125 58.90625  Q 39.453125 66.40625 31.78125 66.40625  z M 31.78125 74.21875  Q 44.046875 74.21875 50.515625 64.515625  Q 56.984375 54.828125 56.984375 36.375  Q 56.984375 17.96875 50.515625 8.265625  Q 44.046875 -1.421875 31.78125 -1.421875  Q 19.53125 -1.421875 13.0625 8.265625  Q 6.59375 17.96875 6.59375 36.375  Q 6.59375 54.828125 13.0625 64.515625  Q 19.53125 74.21875 31.78125 74.21875  z " id="DejaVuSans-48" />
    </defs>
    <g style="fill:#444443;" transform="translate(8.523282 66.699411)scale(0.09 -0.09)">
     <use xlink:href="#DejaVuSans-99" />
     <use x="54.980469" xlink:href="#DejaVuSans-108" />
     <use x="82.763672" xlink:href="#DejaVuSans-97" />
     <use x="144.042969" xlink:href="#DejaVuSans-115" />
     <use x="196.142578" xlink:href="#DejaVuSans-115" />
     <use x="248.242188" xlink:href="#DejaVuSans-32" />
     <use x="280.029297" xlink:href="#DejaVuSans-48" />
    </g>
   </g>
  </g>
 </g>
</svg></g>

<g class="edge" id="edge1">
<title>node3-&gt;leaf11</title>
<path d="M71.0164,-117.8105C64.8324,-107.4262 52.5156,-86.7431 41.7762,-68.7091" fill="none" stroke="#444443" stroke-width=".3" />
<polygon fill="#444443" points="42.9012,-67.862 39.6517,-65.1415 40.4955,-69.2946 42.9012,-67.862" stroke="#444443" stroke-width=".3" />
</g>

<g class="node" id="node8">
<title>leaf12</title>
<polygon fill="none" points="101,-65 57,-65 57,-6 101,-6 101,-65" stroke="#444443" stroke-width="0" />
<svg height="51px" preserveAspectRatio="xMinYMin meet" version="1.1" viewBox="0 0 47.84511 68.57113" width="36px" x="61" y="-60.5">
 <defs>
  <style type="text/css">
*{stroke-linecap:butt;stroke-linejoin:round;}
  </style>
 </defs>
 <g id="figure_1">
  <g id="patch_1">
   <path d="M 0 68.57113  L 47.84511 68.57113  L 47.84511 0  L 0 0  z " style="fill:#ffffff;" />
  </g>
  <g id="axes_1">
   <g id="patch_2">
    <path d="M 47.84511 24.016146  C 47.84511 21.178476 47.338841 18.363432 46.350144 15.703573  C 45.361447 13.043714 43.906088 10.581457 42.052599 8.432748  C 40.19911 6.284039 37.977048 4.483144 35.49105 3.114866  C 33.005053 1.746587 30.294762 0.832745 27.487806 0.416373  C 24.680849 -0 21.821989 0.087736 19.045847 0.67545  C 16.269705 1.263164 13.620552 2.341483 11.223137 3.859629  C 8.825721 5.377776 6.718274 7.311541 5.000033 9.569863  C 3.281793 11.828186 1.98016 14.375053 1.156427 17.090534  C 0.332695 19.806015 -0 22.646806 0.174008 25.479136  C 0.348016 28.311466 1.025952 31.090168 2.175894 33.684393  C 3.325835 36.278619 4.929443 38.646999 6.911204 40.678006  C 8.892965 42.709014 11.221277 44.370262 13.786501 45.583522  C 16.351724 46.796783 19.112951 47.542708 21.940158 47.786172  C 24.767364 48.029637 27.615464 47.766758 30.350343 47.009915  C 33.085221 46.253072 35.663265 45.014335 37.963075 43.352034  C 40.262885 41.689733 42.247787 39.630377 43.824312 37.27094  L 23.98711 24.016146  L 47.84511 24.016146  z " style="fill:#fefebb;stroke:#444443;stroke-linejoin:miter;stroke-width:0.5;" />
   </g>
   <g id="patch_3">
    <path d="M 43.824312 37.27094  C 45.127946 35.319915 46.136646 33.187198 46.817792 30.941758  C 47.498939 28.696318 47.84511 26.362624 47.84511 24.016146  L 23.98711 24.016146  L 43.824312 37.27094  z " style="fill:#a1dab4;stroke:#444443;stroke-linejoin:miter;stroke-width:0.5;" />
   </g>
   <g id="text_1">
    
    <defs>
     <path d="M 54.890625 33.015625  L 54.890625 0  L 45.90625 0  L 45.90625 32.71875  Q 45.90625 40.484375 42.875 44.328125  Q 39.84375 48.1875 33.796875 48.1875  Q 26.515625 48.1875 22.3125 43.546875  Q 18.109375 38.921875 18.109375 30.90625  L 18.109375 0  L 9.078125 0  L 9.078125 54.6875  L 18.109375 54.6875  L 18.109375 46.1875  Q 21.34375 51.125 25.703125 53.5625  Q 30.078125 56 35.796875 56  Q 45.21875 56 50.046875 50.171875  Q 54.890625 44.34375 54.890625 33.015625  z " id="DejaVuSans-110" />
     <path d="M 10.59375 45.40625  L 73.1875 45.40625  L 73.1875 37.203125  L 10.59375 37.203125  z M 10.59375 25.484375  L 73.1875 25.484375  L 73.1875 17.1875  L 10.59375 17.1875  z " id="DejaVuSans-61" />
     <path d="M 40.578125 39.3125  Q 47.65625 37.796875 51.625 33  Q 55.609375 28.21875 55.609375 21.1875  Q 55.609375 10.40625 48.1875 4.484375  Q 40.765625 -1.421875 27.09375 -1.421875  Q 22.515625 -1.421875 17.65625 -0.515625  Q 12.796875 0.390625 7.625 2.203125  L 7.625 11.71875  Q 11.71875 9.328125 16.59375 8.109375  Q 21.484375 6.890625 26.8125 6.890625  Q 36.078125 6.890625 40.9375 10.546875  Q 45.796875 14.203125 45.796875 21.1875  Q 45.796875 27.640625 41.28125 31.265625  Q 36.765625 34.90625 28.71875 34.90625  L 20.21875 34.90625  L 20.21875 43.015625  L 29.109375 43.015625  Q 36.375 43.015625 40.234375 45.921875  Q 44.09375 48.828125 44.09375 54.296875  Q 44.09375 59.90625 40.109375 62.90625  Q 36.140625 65.921875 28.71875 65.921875  Q 24.65625 65.921875 20.015625 65.03125  Q 15.375 64.15625 9.8125 62.3125  L 9.8125 71.09375  Q 15.4375 72.65625 20.34375 73.4375  Q 25.25 74.21875 29.59375 74.21875  Q 40.828125 74.21875 47.359375 69.109375  Q 53.90625 64.015625 53.90625 55.328125  Q 53.90625 49.265625 50.4375 45.09375  Q 46.96875 40.921875 40.578125 39.3125  z " id="DejaVuSans-51" />
     <path d="M 19.1875 8.296875  L 53.609375 8.296875  L 53.609375 0  L 7.328125 0  L 7.328125 8.296875  Q 12.9375 14.109375 22.625 23.890625  Q 32.328125 33.6875 34.8125 36.53125  Q 39.546875 41.84375 41.421875 45.53125  Q 43.3125 49.21875 43.3125 52.78125  Q 43.3125 58.59375 39.234375 62.25  Q 35.15625 65.921875 28.609375 65.921875  Q 23.96875 65.921875 18.8125 64.3125  Q 13.671875 62.703125 7.8125 59.421875  L 7.8125 69.390625  Q 13.765625 71.78125 18.9375 73  Q 24.125 74.21875 28.421875 74.21875  Q 39.75 74.21875 46.484375 68.546875  Q 53.21875 62.890625 53.21875 53.421875  Q 53.21875 48.921875 51.53125 44.890625  Q 49.859375 40.875 45.40625 35.40625  Q 44.1875 33.984375 37.640625 27.21875  Q 31.109375 20.453125 19.1875 8.296875  z " id="DejaVuSans-50" />
    </defs>
    <g style="fill:#444443;" transform="translate(11.638126 56.62138)scale(0.09 -0.09)">
     <use xlink:href="#DejaVuSans-110" />
     <use x="63.378906" xlink:href="#DejaVuSans-61" />
     <use x="147.167969" xlink:href="#DejaVuSans-51" />
     <use x="210.791016" xlink:href="#DejaVuSans-50" />
    </g>
    
    <defs>
     <path d="M 48.78125 52.59375  L 48.78125 44.1875  Q 44.96875 46.296875 41.140625 47.34375  Q 37.3125 48.390625 33.40625 48.390625  Q 24.65625 48.390625 19.8125 42.84375  Q 14.984375 37.3125 14.984375 27.296875  Q 14.984375 17.28125 19.8125 11.734375  Q 24.65625 6.203125 33.40625 6.203125  Q 37.3125 6.203125 41.140625 7.25  Q 44.96875 8.296875 48.78125 10.40625  L 48.78125 2.09375  Q 45.015625 0.34375 40.984375 -0.53125  Q 36.96875 -1.421875 32.421875 -1.421875  Q 20.0625 -1.421875 12.78125 6.34375  Q 5.515625 14.109375 5.515625 27.296875  Q 5.515625 40.671875 12.859375 48.328125  Q 20.21875 56 33.015625 56  Q 37.15625 56 41.109375 55.140625  Q 45.0625 54.296875 48.78125 52.59375  z " id="DejaVuSans-99" />
     <path d="M 9.421875 75.984375  L 18.40625 75.984375  L 18.40625 0  L 9.421875 0  z " id="DejaVuSans-108" />
     <path d="M 34.28125 27.484375  Q 23.390625 27.484375 19.1875 25  Q 14.984375 22.515625 14.984375 16.5  Q 14.984375 11.71875 18.140625 8.90625  Q 21.296875 6.109375 26.703125 6.109375  Q 34.1875 6.109375 38.703125 11.40625  Q 43.21875 16.703125 43.21875 25.484375  L 43.21875 27.484375  z M 52.203125 31.203125  L 52.203125 0  L 43.21875 0  L 43.21875 8.296875  Q 40.140625 3.328125 35.546875 0.953125  Q 30.953125 -1.421875 24.3125 -1.421875  Q 15.921875 -1.421875 10.953125 3.296875  Q 6 8.015625 6 15.921875  Q 6 25.140625 12.171875 29.828125  Q 18.359375 34.515625 30.609375 34.515625  L 43.21875 34.515625  L 43.21875 35.40625  Q 43.21875 41.609375 39.140625 45  Q 35.0625 48.390625 27.6875 48.390625  Q 23 48.390625 18.546875 47.265625  Q 14.109375 46.140625 10.015625 43.890625  L 10.015625 52.203125  Q 14.9375 54.109375 19.578125 55.046875  Q 24.21875 56 28.609375 56  Q 40.484375 56 46.34375 49.84375  Q 52.203125 43.703125 52.203125 31.203125  z " id="DejaVuSans-97" />
     <path d="M 44.28125 53.078125  L 44.28125 44.578125  Q 40.484375 46.53125 36.375 47.5  Q 32.28125 48.484375 27.875 48.484375  Q 21.1875 48.484375 17.84375 46.4375  Q 14.5 44.390625 14.5 40.28125  Q 14.5 37.15625 16.890625 35.375  Q 19.28125 33.59375 26.515625 31.984375  L 29.59375 31.296875  Q 39.15625 29.25 43.1875 25.515625  Q 47.21875 21.78125 47.21875 15.09375  Q 47.21875 7.46875 41.1875 3.015625  Q 35.15625 -1.421875 24.609375 -1.421875  Q 20.21875 -1.421875 15.453125 -0.5625  Q 10.6875 0.296875 5.421875 2  L 5.421875 11.28125  Q 10.40625 8.6875 15.234375 7.390625  Q 20.0625 6.109375 24.8125 6.109375  Q 31.15625 6.109375 34.5625 8.28125  Q 37.984375 10.453125 37.984375 14.40625  Q 37.984375 18.0625 35.515625 20.015625  Q 33.0625 21.96875 24.703125 23.78125  L 21.578125 24.515625  Q 13.234375 26.265625 9.515625 29.90625  Q 5.8125 33.546875 5.8125 39.890625  Q 5.8125 47.609375 11.28125 51.796875  Q 16.75 56 26.8125 56  Q 31.78125 56 36.171875 55.265625  Q 40.578125 54.546875 44.28125 53.078125  z " id="DejaVuSans-115" />
     <path id="DejaVuSans-32" />
     <path d="M 31.78125 66.40625  Q 24.171875 66.40625 20.328125 58.90625  Q 16.5 51.421875 16.5 36.375  Q 16.5 21.390625 20.328125 13.890625  Q 24.171875 6.390625 31.78125 6.390625  Q 39.453125 6.390625 43.28125 13.890625  Q 47.125 21.390625 47.125 36.375  Q 47.125 51.421875 43.28125 58.90625  Q 39.453125 66.40625 31.78125 66.40625  z M 31.78125 74.21875  Q 44.046875 74.21875 50.515625 64.515625  Q 56.984375 54.828125 56.984375 36.375  Q 56.984375 17.96875 50.515625 8.265625  Q 44.046875 -1.421875 31.78125 -1.421875  Q 19.53125 -1.421875 13.0625 8.265625  Q 6.59375 17.96875 6.59375 36.375  Q 6.59375 54.828125 13.0625 64.515625  Q 19.53125 74.21875 31.78125 74.21875  z " id="DejaVuSans-48" />
    </defs>
    <g style="fill:#444443;" transform="translate(8.523282 66.699411)scale(0.09 -0.09)">
     <use xlink:href="#DejaVuSans-99" />
     <use x="54.980469" xlink:href="#DejaVuSans-108" />
     <use x="82.763672" xlink:href="#DejaVuSans-97" />
     <use x="144.042969" xlink:href="#DejaVuSans-115" />
     <use x="196.142578" xlink:href="#DejaVuSans-115" />
     <use x="248.242188" xlink:href="#DejaVuSans-32" />
     <use x="280.029297" xlink:href="#DejaVuSans-48" />
    </g>
   </g>
  </g>
 </g>
</svg></g>

<g class="edge" id="edge2">
<title>node3-&gt;leaf12</title>
<path d="M75.3007,-117.8105C75.7635,-107.5127 76.6815,-87.0871 77.4872,-69.1605" fill="none" stroke="#444443" stroke-width=".3" />
<polygon fill="#444443" points="78.8867,-69.2004 77.6678,-65.1415 76.0895,-69.0746 78.8867,-69.2004" stroke="#444443" stroke-width=".3" />
</g>

<g class="node" id="node9">
<title>leaf5</title>
<polygon fill="none" points="172.5,-71 117.5,-71 117.5,0 172.5,0 172.5,-71" stroke="#444443" stroke-width="0" />
<svg height="63px" preserveAspectRatio="xMinYMin meet" version="1.1" viewBox="0 0 62.370747 83.612964" width="47px" x="122" y="-66.5">
 <defs>
  <style type="text/css">
*{stroke-linecap:butt;stroke-linejoin:round;}
  </style>
 </defs>
 <g id="figure_1">
  <g id="patch_1">
   <path d="M 0 83.612964  L 62.370747 83.612964  L 62.370747 0  L 0 0  z " style="fill:#ffffff;" />
  </g>
  <g id="axes_1">
   <g id="patch_2">
    <path d="M 62.370747 31.23014  C 62.370747 28.077752 61.891536 24.943603 60.94956 21.935242  C 60.007583 18.926882 58.61374 16.079122 56.815862 13.489685  C 55.017984 10.900248 52.836874 8.599097 50.347379 6.665198  C 47.857884 4.731299 45.08881 3.187029 42.135181 2.085383  C 39.181552 0.983736 36.077544 0.337459 32.929675 0.168729  C 29.781805 -0 26.626499 0.31077 23.572032 1.090376  C 20.517566 1.869982 17.599283 3.109403 14.917328 4.766106  C 12.235372 6.422809 9.820777 8.477625 7.756402 10.860041  C 5.692027 13.242457 4.001758 15.924905 2.743599 18.815335  C 1.485441 21.705766 0.67395 24.770732 0.336975 27.905058  C -0 31.039384 0.141439 34.206801 0.756439 37.298617  C 1.371439 40.390433 2.452884 43.370872 3.963663 46.137657  C 5.474441 48.904442 7.397072 51.425558 9.665579 53.614491  C 11.934085 55.803425 14.522218 57.634847 17.341163 59.04591  C 20.160108 60.456973 23.177246 61.431351 26.289043 61.935606  C 29.400839 62.439861 32.571287 62.468158 35.691588 62.019527  L 31.264747 31.23014  L 62.370747 31.23014  z " style="fill:#fefebb;stroke:#444443;stroke-linejoin:miter;stroke-width:0.5;" />
   </g>
   <g id="patch_3">
    <path d="M 35.691588 62.019527  C 43.096347 60.954884 49.87414 57.25393 54.773091 51.600241  C 59.672042 45.946552 62.370746 38.711047 62.370747 31.230143  L 31.264747 31.23014  L 35.691588 62.019527  z " style="fill:#a1dab4;stroke:#444443;stroke-linejoin:miter;stroke-width:0.5;" />
   </g>
   <g id="text_1">
    
    <defs>
     <path d="M 54.890625 33.015625  L 54.890625 0  L 45.90625 0  L 45.90625 32.71875  Q 45.90625 40.484375 42.875 44.328125  Q 39.84375 48.1875 33.796875 48.1875  Q 26.515625 48.1875 22.3125 43.546875  Q 18.109375 38.921875 18.109375 30.90625  L 18.109375 0  L 9.078125 0  L 9.078125 54.6875  L 18.109375 54.6875  L 18.109375 46.1875  Q 21.34375 51.125 25.703125 53.5625  Q 30.078125 56 35.796875 56  Q 45.21875 56 50.046875 50.171875  Q 54.890625 44.34375 54.890625 33.015625  z " id="DejaVuSans-110" />
     <path d="M 10.59375 45.40625  L 73.1875 45.40625  L 73.1875 37.203125  L 10.59375 37.203125  z M 10.59375 25.484375  L 73.1875 25.484375  L 73.1875 17.1875  L 10.59375 17.1875  z " id="DejaVuSans-61" />
     <path d="M 37.796875 64.3125  L 12.890625 25.390625  L 37.796875 25.390625  z M 35.203125 72.90625  L 47.609375 72.90625  L 47.609375 25.390625  L 58.015625 25.390625  L 58.015625 17.1875  L 47.609375 17.1875  L 47.609375 0  L 37.796875 0  L 37.796875 17.1875  L 4.890625 17.1875  L 4.890625 26.703125  z " id="DejaVuSans-52" />
    </defs>
    <g style="fill:#444443;" transform="translate(18.915763 71.663214)scale(0.09 -0.09)">
     <use xlink:href="#DejaVuSans-110" />
     <use x="63.378906" xlink:href="#DejaVuSans-61" />
     <use x="147.167969" xlink:href="#DejaVuSans-52" />
     <use x="210.791016" xlink:href="#DejaVuSans-52" />
    </g>
    
    <defs>
     <path d="M 48.78125 52.59375  L 48.78125 44.1875  Q 44.96875 46.296875 41.140625 47.34375  Q 37.3125 48.390625 33.40625 48.390625  Q 24.65625 48.390625 19.8125 42.84375  Q 14.984375 37.3125 14.984375 27.296875  Q 14.984375 17.28125 19.8125 11.734375  Q 24.65625 6.203125 33.40625 6.203125  Q 37.3125 6.203125 41.140625 7.25  Q 44.96875 8.296875 48.78125 10.40625  L 48.78125 2.09375  Q 45.015625 0.34375 40.984375 -0.53125  Q 36.96875 -1.421875 32.421875 -1.421875  Q 20.0625 -1.421875 12.78125 6.34375  Q 5.515625 14.109375 5.515625 27.296875  Q 5.515625 40.671875 12.859375 48.328125  Q 20.21875 56 33.015625 56  Q 37.15625 56 41.109375 55.140625  Q 45.0625 54.296875 48.78125 52.59375  z " id="DejaVuSans-99" />
     <path d="M 9.421875 75.984375  L 18.40625 75.984375  L 18.40625 0  L 9.421875 0  z " id="DejaVuSans-108" />
     <path d="M 34.28125 27.484375  Q 23.390625 27.484375 19.1875 25  Q 14.984375 22.515625 14.984375 16.5  Q 14.984375 11.71875 18.140625 8.90625  Q 21.296875 6.109375 26.703125 6.109375  Q 34.1875 6.109375 38.703125 11.40625  Q 43.21875 16.703125 43.21875 25.484375  L 43.21875 27.484375  z M 52.203125 31.203125  L 52.203125 0  L 43.21875 0  L 43.21875 8.296875  Q 40.140625 3.328125 35.546875 0.953125  Q 30.953125 -1.421875 24.3125 -1.421875  Q 15.921875 -1.421875 10.953125 3.296875  Q 6 8.015625 6 15.921875  Q 6 25.140625 12.171875 29.828125  Q 18.359375 34.515625 30.609375 34.515625  L 43.21875 34.515625  L 43.21875 35.40625  Q 43.21875 41.609375 39.140625 45  Q 35.0625 48.390625 27.6875 48.390625  Q 23 48.390625 18.546875 47.265625  Q 14.109375 46.140625 10.015625 43.890625  L 10.015625 52.203125  Q 14.9375 54.109375 19.578125 55.046875  Q 24.21875 56 28.609375 56  Q 40.484375 56 46.34375 49.84375  Q 52.203125 43.703125 52.203125 31.203125  z " id="DejaVuSans-97" />
     <path d="M 44.28125 53.078125  L 44.28125 44.578125  Q 40.484375 46.53125 36.375 47.5  Q 32.28125 48.484375 27.875 48.484375  Q 21.1875 48.484375 17.84375 46.4375  Q 14.5 44.390625 14.5 40.28125  Q 14.5 37.15625 16.890625 35.375  Q 19.28125 33.59375 26.515625 31.984375  L 29.59375 31.296875  Q 39.15625 29.25 43.1875 25.515625  Q 47.21875 21.78125 47.21875 15.09375  Q 47.21875 7.46875 41.1875 3.015625  Q 35.15625 -1.421875 24.609375 -1.421875  Q 20.21875 -1.421875 15.453125 -0.5625  Q 10.6875 0.296875 5.421875 2  L 5.421875 11.28125  Q 10.40625 8.6875 15.234375 7.390625  Q 20.0625 6.109375 24.8125 6.109375  Q 31.15625 6.109375 34.5625 8.28125  Q 37.984375 10.453125 37.984375 14.40625  Q 37.984375 18.0625 35.515625 20.015625  Q 33.0625 21.96875 24.703125 23.78125  L 21.578125 24.515625  Q 13.234375 26.265625 9.515625 29.90625  Q 5.8125 33.546875 5.8125 39.890625  Q 5.8125 47.609375 11.28125 51.796875  Q 16.75 56 26.8125 56  Q 31.78125 56 36.171875 55.265625  Q 40.578125 54.546875 44.28125 53.078125  z " id="DejaVuSans-115" />
     <path id="DejaVuSans-32" />
     <path d="M 31.78125 66.40625  Q 24.171875 66.40625 20.328125 58.90625  Q 16.5 51.421875 16.5 36.375  Q 16.5 21.390625 20.328125 13.890625  Q 24.171875 6.390625 31.78125 6.390625  Q 39.453125 6.390625 43.28125 13.890625  Q 47.125 21.390625 47.125 36.375  Q 47.125 51.421875 43.28125 58.90625  Q 39.453125 66.40625 31.78125 66.40625  z M 31.78125 74.21875  Q 44.046875 74.21875 50.515625 64.515625  Q 56.984375 54.828125 56.984375 36.375  Q 56.984375 17.96875 50.515625 8.265625  Q 44.046875 -1.421875 31.78125 -1.421875  Q 19.53125 -1.421875 13.0625 8.265625  Q 6.59375 17.96875 6.59375 36.375  Q 6.59375 54.828125 13.0625 64.515625  Q 19.53125 74.21875 31.78125 74.21875  z " id="DejaVuSans-48" />
    </defs>
    <g style="fill:#444443;" transform="translate(15.800919 81.741245)scale(0.09 -0.09)">
     <use xlink:href="#DejaVuSans-99" />
     <use x="54.980469" xlink:href="#DejaVuSans-108" />
     <use x="82.763672" xlink:href="#DejaVuSans-97" />
     <use x="144.042969" xlink:href="#DejaVuSans-115" />
     <use x="196.142578" xlink:href="#DejaVuSans-115" />
     <use x="248.242188" xlink:href="#DejaVuSans-32" />
     <use x="280.029297" xlink:href="#DejaVuSans-48" />
    </g>
   </g>
  </g>
 </g>
</svg></g>

<g class="edge" id="edge4">
<title>node4-&gt;leaf5</title>
<path d="M149.6242,-117.8105C149.1091,-108.6427 148.1431,-91.448 147.2267,-75.1356" fill="none" stroke="#444443" stroke-width=".3" />
<polygon fill="#444443" points="148.6174,-74.928 146.9951,-71.0129 145.8218,-75.0851 148.6174,-74.928" stroke="#444443" stroke-width=".3" />
</g>

<g class="node" id="node10">
<title>leaf6</title>
<polygon fill="none" points="232,-66.5 186,-66.5 186,-4.5 232,-4.5 232,-66.5" stroke="#444443" stroke-width="0" />
<svg height="54px" preserveAspectRatio="xMinYMin meet" version="1.1" viewBox="0 0 50.398697 71.417305" width="38px" x="190" y="-62.5">
 <defs>
  <style type="text/css">
*{stroke-linecap:butt;stroke-linejoin:round;}
  </style>
 </defs>
 <g id="figure_1">
  <g id="patch_1">
   <path d="M 0 71.417305  L 50.398697 71.417305  L 50.398697 0  L 0 0  z " style="fill:#ffffff;" />
  </g>
  <g id="axes_1">
   <g id="patch_2">
    <path d="M 50.398697 25.557681  C 50.398697 20.502079 48.869189 15.56283 46.012084 11.391971  C 43.154979 7.221113 39.101789 4.010626 34.38758 2.184332  C 29.673372 0.358038 24.515137 -0 19.593822 1.157483  C 14.672507 2.314966 10.214636 4.934692 6.808699 8.670827  L 25.332697 25.557681  L 50.398697 25.557681  z " style="fill:#fefebb;stroke:#444443;stroke-linejoin:miter;stroke-width:0.5;" />
   </g>
   <g id="patch_3">
    <path d="M 6.808699 8.670827  C 4.064785 11.680757 2.095392 15.314599 1.071564 19.256745  C 0.047737 23.198892 0 27.331813 0.932499 31.296556  C 1.864998 35.261299 3.749933 38.93966 6.423592 42.012166  C 9.09725 45.084672 12.479922 47.459719 16.277814 48.93103  C 20.075707 50.402341 24.17559 50.926051 28.221381 50.456674  C 32.267173 49.987297 36.138252 48.538828 39.498407 46.237068  C 42.858562 43.935308 45.607615 40.848882 47.506804 37.245852  C 49.405994 33.642822 50.398697 29.630609 50.398697 25.557681  L 25.332697 25.557681  L 6.808699 8.670827  z " style="fill:#a1dab4;stroke:#444443;stroke-linejoin:miter;stroke-width:0.5;" />
   </g>
   <g id="text_1">
    
    <defs>
     <path d="M 54.890625 33.015625  L 54.890625 0  L 45.90625 0  L 45.90625 32.71875  Q 45.90625 40.484375 42.875 44.328125  Q 39.84375 48.1875 33.796875 48.1875  Q 26.515625 48.1875 22.3125 43.546875  Q 18.109375 38.921875 18.109375 30.90625  L 18.109375 0  L 9.078125 0  L 9.078125 54.6875  L 18.109375 54.6875  L 18.109375 46.1875  Q 21.34375 51.125 25.703125 53.5625  Q 30.078125 56 35.796875 56  Q 45.21875 56 50.046875 50.171875  Q 54.890625 44.34375 54.890625 33.015625  z " id="DejaVuSans-110" />
     <path d="M 10.59375 45.40625  L 73.1875 45.40625  L 73.1875 37.203125  L 10.59375 37.203125  z M 10.59375 25.484375  L 73.1875 25.484375  L 73.1875 17.1875  L 10.59375 17.1875  z " id="DejaVuSans-61" />
     <path d="M 40.578125 39.3125  Q 47.65625 37.796875 51.625 33  Q 55.609375 28.21875 55.609375 21.1875  Q 55.609375 10.40625 48.1875 4.484375  Q 40.765625 -1.421875 27.09375 -1.421875  Q 22.515625 -1.421875 17.65625 -0.515625  Q 12.796875 0.390625 7.625 2.203125  L 7.625 11.71875  Q 11.71875 9.328125 16.59375 8.109375  Q 21.484375 6.890625 26.8125 6.890625  Q 36.078125 6.890625 40.9375 10.546875  Q 45.796875 14.203125 45.796875 21.1875  Q 45.796875 27.640625 41.28125 31.265625  Q 36.765625 34.90625 28.71875 34.90625  L 20.21875 34.90625  L 20.21875 43.015625  L 29.109375 43.015625  Q 36.375 43.015625 40.234375 45.921875  Q 44.09375 48.828125 44.09375 54.296875  Q 44.09375 59.90625 40.109375 62.90625  Q 36.140625 65.921875 28.71875 65.921875  Q 24.65625 65.921875 20.015625 65.03125  Q 15.375 64.15625 9.8125 62.3125  L 9.8125 71.09375  Q 15.4375 72.65625 20.34375 73.4375  Q 25.25 74.21875 29.59375 74.21875  Q 40.828125 74.21875 47.359375 69.109375  Q 53.90625 64.015625 53.90625 55.328125  Q 53.90625 49.265625 50.4375 45.09375  Q 46.96875 40.921875 40.578125 39.3125  z " id="DejaVuSans-51" />
     <path d="M 37.796875 64.3125  L 12.890625 25.390625  L 37.796875 25.390625  z M 35.203125 72.90625  L 47.609375 72.90625  L 47.609375 25.390625  L 58.015625 25.390625  L 58.015625 17.1875  L 47.609375 17.1875  L 47.609375 0  L 37.796875 0  L 37.796875 17.1875  L 4.890625 17.1875  L 4.890625 26.703125  z " id="DejaVuSans-52" />
    </defs>
    <g style="fill:#444443;" transform="translate(12.983713 59.467555)scale(0.09 -0.09)">
     <use xlink:href="#DejaVuSans-110" />
     <use x="63.378906" xlink:href="#DejaVuSans-61" />
     <use x="147.167969" xlink:href="#DejaVuSans-51" />
     <use x="210.791016" xlink:href="#DejaVuSans-52" />
    </g>
    
    <defs>
     <path d="M 48.78125 52.59375  L 48.78125 44.1875  Q 44.96875 46.296875 41.140625 47.34375  Q 37.3125 48.390625 33.40625 48.390625  Q 24.65625 48.390625 19.8125 42.84375  Q 14.984375 37.3125 14.984375 27.296875  Q 14.984375 17.28125 19.8125 11.734375  Q 24.65625 6.203125 33.40625 6.203125  Q 37.3125 6.203125 41.140625 7.25  Q 44.96875 8.296875 48.78125 10.40625  L 48.78125 2.09375  Q 45.015625 0.34375 40.984375 -0.53125  Q 36.96875 -1.421875 32.421875 -1.421875  Q 20.0625 -1.421875 12.78125 6.34375  Q 5.515625 14.109375 5.515625 27.296875  Q 5.515625 40.671875 12.859375 48.328125  Q 20.21875 56 33.015625 56  Q 37.15625 56 41.109375 55.140625  Q 45.0625 54.296875 48.78125 52.59375  z " id="DejaVuSans-99" />
     <path d="M 9.421875 75.984375  L 18.40625 75.984375  L 18.40625 0  L 9.421875 0  z " id="DejaVuSans-108" />
     <path d="M 34.28125 27.484375  Q 23.390625 27.484375 19.1875 25  Q 14.984375 22.515625 14.984375 16.5  Q 14.984375 11.71875 18.140625 8.90625  Q 21.296875 6.109375 26.703125 6.109375  Q 34.1875 6.109375 38.703125 11.40625  Q 43.21875 16.703125 43.21875 25.484375  L 43.21875 27.484375  z M 52.203125 31.203125  L 52.203125 0  L 43.21875 0  L 43.21875 8.296875  Q 40.140625 3.328125 35.546875 0.953125  Q 30.953125 -1.421875 24.3125 -1.421875  Q 15.921875 -1.421875 10.953125 3.296875  Q 6 8.015625 6 15.921875  Q 6 25.140625 12.171875 29.828125  Q 18.359375 34.515625 30.609375 34.515625  L 43.21875 34.515625  L 43.21875 35.40625  Q 43.21875 41.609375 39.140625 45  Q 35.0625 48.390625 27.6875 48.390625  Q 23 48.390625 18.546875 47.265625  Q 14.109375 46.140625 10.015625 43.890625  L 10.015625 52.203125  Q 14.9375 54.109375 19.578125 55.046875  Q 24.21875 56 28.609375 56  Q 40.484375 56 46.34375 49.84375  Q 52.203125 43.703125 52.203125 31.203125  z " id="DejaVuSans-97" />
     <path d="M 44.28125 53.078125  L 44.28125 44.578125  Q 40.484375 46.53125 36.375 47.5  Q 32.28125 48.484375 27.875 48.484375  Q 21.1875 48.484375 17.84375 46.4375  Q 14.5 44.390625 14.5 40.28125  Q 14.5 37.15625 16.890625 35.375  Q 19.28125 33.59375 26.515625 31.984375  L 29.59375 31.296875  Q 39.15625 29.25 43.1875 25.515625  Q 47.21875 21.78125 47.21875 15.09375  Q 47.21875 7.46875 41.1875 3.015625  Q 35.15625 -1.421875 24.609375 -1.421875  Q 20.21875 -1.421875 15.453125 -0.5625  Q 10.6875 0.296875 5.421875 2  L 5.421875 11.28125  Q 10.40625 8.6875 15.234375 7.390625  Q 20.0625 6.109375 24.8125 6.109375  Q 31.15625 6.109375 34.5625 8.28125  Q 37.984375 10.453125 37.984375 14.40625  Q 37.984375 18.0625 35.515625 20.015625  Q 33.0625 21.96875 24.703125 23.78125  L 21.578125 24.515625  Q 13.234375 26.265625 9.515625 29.90625  Q 5.8125 33.546875 5.8125 39.890625  Q 5.8125 47.609375 11.28125 51.796875  Q 16.75 56 26.8125 56  Q 31.78125 56 36.171875 55.265625  Q 40.578125 54.546875 44.28125 53.078125  z " id="DejaVuSans-115" />
     <path id="DejaVuSans-32" />
     <path d="M 12.40625 8.296875  L 28.515625 8.296875  L 28.515625 63.921875  L 10.984375 60.40625  L 10.984375 69.390625  L 28.421875 72.90625  L 38.28125 72.90625  L 38.28125 8.296875  L 54.390625 8.296875  L 54.390625 0  L 12.40625 0  z " id="DejaVuSans-49" />
    </defs>
    <g style="fill:#444443;" transform="translate(9.868869 69.545586)scale(0.09 -0.09)">
     <use xlink:href="#DejaVuSans-99" />
     <use x="54.980469" xlink:href="#DejaVuSans-108" />
     <use x="82.763672" xlink:href="#DejaVuSans-97" />
     <use x="144.042969" xlink:href="#DejaVuSans-115" />
     <use x="196.142578" xlink:href="#DejaVuSans-115" />
     <use x="248.242188" xlink:href="#DejaVuSans-32" />
     <use x="280.029297" xlink:href="#DejaVuSans-49" />
    </g>
   </g>
  </g>
 </g>
</svg></g>

<g class="edge" id="edge5">
<title>node4-&gt;leaf6</title>
<path d="M154.4346,-117.8105C161.1176,-107.7294 174.235,-87.9421 185.9335,-70.2952" fill="none" stroke="#444443" stroke-width=".3" />
<polygon fill="#444443" points="187.2087,-70.9054 188.252,-66.7979 184.8749,-69.3583 187.2087,-70.9054" stroke="#444443" stroke-width=".3" />
</g>

<g class="node" id="node3">
<title>node1</title>
<text fill="#444443" font-family="Helvetica,sans-Serif" font-size="12.00" text-anchor="start" x="124.5" y="-181.4">A@53.12</text>
</g>

<g class="edge" id="edge7">
<title>node1-&gt;node3</title>
<path d="M141.6871,-177.8497C128.3552,-167.1841 102.1426,-146.2141 86.8522,-133.9817" fill="none" stroke="#444443" stroke-width=".3" />
<polygon fill="#444443" points="87.5787,-132.7701 83.5806,-131.3645 85.8295,-134.9565 87.5787,-132.7701" stroke="#444443" stroke-width=".3" />
</g>

<g class="edge" id="edge8">
<title>node1-&gt;node4</title>
<path d="M150,-177.6172C150,-167.3093 150,-147.7625 150,-135.4718" fill="none" stroke="#444443" stroke-width=".3" />
<polygon fill="#444443" points="151.4001,-135.3025 150,-131.3025 148.6001,-135.3025 151.4001,-135.3025" stroke="#444443" stroke-width=".3" />
</g>

<g class="node" id="node5">
<title>node2</title>
<text fill="#444443" font-family="Helvetica,sans-Serif" font-size="12.00" text-anchor="start" x="189.5" y="-181.4">EIA@0.98</text>
</g>


<g class="node" id="node4">
<title>node8</title>
<text fill="#444443" font-family="Helvetica,sans-Serif" font-size="12.00" text-anchor="start" x="258.5" y="-121.4">REE@0.16</text>
</g>

<g class="node" id="node11">
<title>leaf9</title>
<polygon fill="none" points="287,-62 249,-62 249,-9 287,-9 287,-62" stroke="#444443" stroke-width="0" />
<svg height="45px" preserveAspectRatio="xMinYMin meet" version="1.1" viewBox="0 0 39.356739 59.735211" width="30px" x="253" y="-57.5">
 <defs>
  <style type="text/css">
*{stroke-linecap:butt;stroke-linejoin:round;}
  </style>
 </defs>
 <g id="figure_1">
  <g id="patch_1">
   <path d="M 0 59.735211  L 39.356739 59.735211  L 39.356739 0  L 0 0  z " style="fill:#ffffff;" />
  </g>
  <g id="axes_1">
   <g id="patch_2">
    <path d="M 39.356739 19.746467  C 39.356739 16.440215 38.521438 13.186933 36.928639 10.289643  C 35.33584 7.392352 33.03658 4.943889 30.245019 3.17231  L 19.726739 19.746467  L 39.356739 19.746467  z " style="fill:#fefebb;stroke:#444443;stroke-linejoin:miter;stroke-width:0.5;" />
   </g>
   <g id="patch_3">
    <path d="M 30.245019 3.17231  C 28.418474 2.013149 26.412812 1.163861 24.309272 0.658846  C 22.205732 0.15383 20.033105 -0 17.879393 0.203586  C 15.725682 0.407171 13.620363 0.965386 11.648713 1.85562  C 9.677063 2.745854 7.866067 3.955923 6.28908 5.436812  C 4.712093 6.917701 3.390699 8.649142 2.37842 10.561003  C 1.366142 12.472865 0.676834 14.538978 0.338417 16.675657  C 0 18.812335 0.017106 20.990334 0.389042 23.121433  C 0.760978 25.252533 1.482654 27.307565 2.524838 29.20329  C 3.567021 31.099015 4.915448 32.809487 6.515501 34.265424  C 8.115554 35.72136 9.945333 36.902834 11.930723 37.761989  C 13.916113 38.621145 16.02994 39.146222 18.186584 39.315954  C 20.343228 39.485686 22.51317 39.297749 24.608518 38.759755  C 26.703866 38.221762 28.695941 37.341075 30.504054 36.153367  C 32.312167 34.96566 33.91157 33.487187 35.23748 31.777835  C 36.563389 30.068483 37.597658 28.151647 38.298393 26.104969  C 38.999128 24.058291 39.356738 21.909783 39.356739 19.746471  L 19.726739 19.746467  L 30.245019 3.17231  z " style="fill:#a1dab4;stroke:#444443;stroke-linejoin:miter;stroke-width:0.5;" />
   </g>
   <g id="text_1">
    
    <defs>
     <path d="M 54.890625 33.015625  L 54.890625 0  L 45.90625 0  L 45.90625 32.71875  Q 45.90625 40.484375 42.875 44.328125  Q 39.84375 48.1875 33.796875 48.1875  Q 26.515625 48.1875 22.3125 43.546875  Q 18.109375 38.921875 18.109375 30.90625  L 18.109375 0  L 9.078125 0  L 9.078125 54.6875  L 18.109375 54.6875  L 18.109375 46.1875  Q 21.34375 51.125 25.703125 53.5625  Q 30.078125 56 35.796875 56  Q 45.21875 56 50.046875 50.171875  Q 54.890625 44.34375 54.890625 33.015625  z " id="DejaVuSans-110" />
     <path d="M 10.59375 45.40625  L 73.1875 45.40625  L 73.1875 37.203125  L 10.59375 37.203125  z M 10.59375 25.484375  L 73.1875 25.484375  L 73.1875 17.1875  L 10.59375 17.1875  z " id="DejaVuSans-61" />
     <path d="M 19.1875 8.296875  L 53.609375 8.296875  L 53.609375 0  L 7.328125 0  L 7.328125 8.296875  Q 12.9375 14.109375 22.625 23.890625  Q 32.328125 33.6875 34.8125 36.53125  Q 39.546875 41.84375 41.421875 45.53125  Q 43.3125 49.21875 43.3125 52.78125  Q 43.3125 58.59375 39.234375 62.25  Q 35.15625 65.921875 28.609375 65.921875  Q 23.96875 65.921875 18.8125 64.3125  Q 13.671875 62.703125 7.8125 59.421875  L 7.8125 69.390625  Q 13.765625 71.78125 18.9375 73  Q 24.125 74.21875 28.421875 74.21875  Q 39.75 74.21875 46.484375 68.546875  Q 53.21875 62.890625 53.21875 53.421875  Q 53.21875 48.921875 51.53125 44.890625  Q 49.859375 40.875 45.40625 35.40625  Q 44.1875 33.984375 37.640625 27.21875  Q 31.109375 20.453125 19.1875 8.296875  z " id="DejaVuSans-50" />
     <path d="M 10.796875 72.90625  L 49.515625 72.90625  L 49.515625 64.59375  L 19.828125 64.59375  L 19.828125 46.734375  Q 21.96875 47.46875 24.109375 47.828125  Q 26.265625 48.1875 28.421875 48.1875  Q 40.625 48.1875 47.75 41.5  Q 54.890625 34.8125 54.890625 23.390625  Q 54.890625 11.625 47.5625 5.09375  Q 40.234375 -1.421875 26.90625 -1.421875  Q 22.3125 -1.421875 17.546875 -0.640625  Q 12.796875 0.140625 7.71875 1.703125  L 7.71875 11.625  Q 12.109375 9.234375 16.796875 8.0625  Q 21.484375 6.890625 26.703125 6.890625  Q 35.15625 6.890625 40.078125 11.328125  Q 45.015625 15.765625 45.015625 23.390625  Q 45.015625 31 40.078125 35.4375  Q 35.15625 39.890625 26.703125 39.890625  Q 22.75 39.890625 18.8125 39.015625  Q 14.890625 38.140625 10.796875 36.28125  z " id="DejaVuSans-53" />
    </defs>
    <g style="fill:#444443;" transform="translate(7.377754 47.785461)scale(0.09 -0.09)">
     <use xlink:href="#DejaVuSans-110" />
     <use x="63.378906" xlink:href="#DejaVuSans-61" />
     <use x="147.167969" xlink:href="#DejaVuSans-50" />
     <use x="210.791016" xlink:href="#DejaVuSans-53" />
    </g>
    
    <defs>
     <path d="M 48.78125 52.59375  L 48.78125 44.1875  Q 44.96875 46.296875 41.140625 47.34375  Q 37.3125 48.390625 33.40625 48.390625  Q 24.65625 48.390625 19.8125 42.84375  Q 14.984375 37.3125 14.984375 27.296875  Q 14.984375 17.28125 19.8125 11.734375  Q 24.65625 6.203125 33.40625 6.203125  Q 37.3125 6.203125 41.140625 7.25  Q 44.96875 8.296875 48.78125 10.40625  L 48.78125 2.09375  Q 45.015625 0.34375 40.984375 -0.53125  Q 36.96875 -1.421875 32.421875 -1.421875  Q 20.0625 -1.421875 12.78125 6.34375  Q 5.515625 14.109375 5.515625 27.296875  Q 5.515625 40.671875 12.859375 48.328125  Q 20.21875 56 33.015625 56  Q 37.15625 56 41.109375 55.140625  Q 45.0625 54.296875 48.78125 52.59375  z " id="DejaVuSans-99" />
     <path d="M 9.421875 75.984375  L 18.40625 75.984375  L 18.40625 0  L 9.421875 0  z " id="DejaVuSans-108" />
     <path d="M 34.28125 27.484375  Q 23.390625 27.484375 19.1875 25  Q 14.984375 22.515625 14.984375 16.5  Q 14.984375 11.71875 18.140625 8.90625  Q 21.296875 6.109375 26.703125 6.109375  Q 34.1875 6.109375 38.703125 11.40625  Q 43.21875 16.703125 43.21875 25.484375  L 43.21875 27.484375  z M 52.203125 31.203125  L 52.203125 0  L 43.21875 0  L 43.21875 8.296875  Q 40.140625 3.328125 35.546875 0.953125  Q 30.953125 -1.421875 24.3125 -1.421875  Q 15.921875 -1.421875 10.953125 3.296875  Q 6 8.015625 6 15.921875  Q 6 25.140625 12.171875 29.828125  Q 18.359375 34.515625 30.609375 34.515625  L 43.21875 34.515625  L 43.21875 35.40625  Q 43.21875 41.609375 39.140625 45  Q 35.0625 48.390625 27.6875 48.390625  Q 23 48.390625 18.546875 47.265625  Q 14.109375 46.140625 10.015625 43.890625  L 10.015625 52.203125  Q 14.9375 54.109375 19.578125 55.046875  Q 24.21875 56 28.609375 56  Q 40.484375 56 46.34375 49.84375  Q 52.203125 43.703125 52.203125 31.203125  z " id="DejaVuSans-97" />
     <path d="M 44.28125 53.078125  L 44.28125 44.578125  Q 40.484375 46.53125 36.375 47.5  Q 32.28125 48.484375 27.875 48.484375  Q 21.1875 48.484375 17.84375 46.4375  Q 14.5 44.390625 14.5 40.28125  Q 14.5 37.15625 16.890625 35.375  Q 19.28125 33.59375 26.515625 31.984375  L 29.59375 31.296875  Q 39.15625 29.25 43.1875 25.515625  Q 47.21875 21.78125 47.21875 15.09375  Q 47.21875 7.46875 41.1875 3.015625  Q 35.15625 -1.421875 24.609375 -1.421875  Q 20.21875 -1.421875 15.453125 -0.5625  Q 10.6875 0.296875 5.421875 2  L 5.421875 11.28125  Q 10.40625 8.6875 15.234375 7.390625  Q 20.0625 6.109375 24.8125 6.109375  Q 31.15625 6.109375 34.5625 8.28125  Q 37.984375 10.453125 37.984375 14.40625  Q 37.984375 18.0625 35.515625 20.015625  Q 33.0625 21.96875 24.703125 23.78125  L 21.578125 24.515625  Q 13.234375 26.265625 9.515625 29.90625  Q 5.8125 33.546875 5.8125 39.890625  Q 5.8125 47.609375 11.28125 51.796875  Q 16.75 56 26.8125 56  Q 31.78125 56 36.171875 55.265625  Q 40.578125 54.546875 44.28125 53.078125  z " id="DejaVuSans-115" />
     <path id="DejaVuSans-32" />
     <path d="M 12.40625 8.296875  L 28.515625 8.296875  L 28.515625 63.921875  L 10.984375 60.40625  L 10.984375 69.390625  L 28.421875 72.90625  L 38.28125 72.90625  L 38.28125 8.296875  L 54.390625 8.296875  L 54.390625 0  L 12.40625 0  z " id="DejaVuSans-49" />
    </defs>
    <g style="fill:#444443;" transform="translate(4.262911 57.863492)scale(0.09 -0.09)">
     <use xlink:href="#DejaVuSans-99" />
     <use x="54.980469" xlink:href="#DejaVuSans-108" />
     <use x="82.763672" xlink:href="#DejaVuSans-97" />
     <use x="144.042969" xlink:href="#DejaVuSans-115" />
     <use x="196.142578" xlink:href="#DejaVuSans-115" />
     <use x="248.242188" xlink:href="#DejaVuSans-32" />
     <use x="280.029297" xlink:href="#DejaVuSans-49" />
    </g>
   </g>
  </g>
 </g>
</svg></g>

<g class="edge" id="edge10">
<title>node8-&gt;leaf9</title>
<path d="M287.4216,-117.8105C284.8676,-106.9865 279.6735,-84.9734 275.299,-66.4339" fill="none" stroke="#444443" stroke-width=".3" />
<polygon fill="#444443" points="276.6033,-65.865 274.322,-62.2934 273.8781,-66.5081 276.6033,-65.865" stroke="#444443" stroke-width=".3" />
</g>

<g class="node" id="node12">
<title>leaf10</title>
<polygon fill="none" points="337.5,-61.5 300.5,-61.5 300.5,-9.5 337.5,-9.5 337.5,-61.5" stroke="#444443" stroke-width="0" />
<svg height="44px" preserveAspectRatio="xMinYMin meet" version="1.1" viewBox="0 0 38.184756 58.427134" width="29px" x="305" y="-57.5">
 <defs>
  <style type="text/css">
*{stroke-linecap:butt;stroke-linejoin:round;}
  </style>
 </defs>
 <g id="figure_1">
  <g id="patch_1">
   <path d="M 0 58.427134  L 38.184756 58.427134  L 38.184756 0  L 0 0  z " style="fill:#ffffff;" />
  </g>
  <g id="axes_1">
   <g id="patch_2">
    <path d="M 38.184756 19.090711  C 38.184756 17.428012 37.966799 15.772463 37.53646 14.166419  C 37.106122 12.560375 36.467104 11.01765 35.635755 9.57771  L 19.158756 19.090711  L 38.184756 19.090711  z " style="fill:#fefebb;stroke:#444443;stroke-linejoin:miter;stroke-width:0.5;" />
   </g>
   <g id="patch_3">
    <path d="M 35.635755 9.57771  C 34.491204 7.59529 32.998221 5.835604 31.228722 4.383413  C 29.459223 2.931223 27.442082 1.810225 25.274462 1.074418  C 23.106843 0.33861 20.824118 -0 18.536242 0.074897  C 16.248366 0.149795 13.992674 0.636978 11.87782 1.512979  C 9.762966 2.38898 7.823461 3.639505 6.152728 5.204317  C 4.481995 6.76913 3.107298 8.622694 2.094854 10.675727  C 1.082411 12.72876 0.448742 14.947759 0.224371 17.225838  C 0 19.503917 0.188588 21.803901 0.781051 24.015003  C 1.373515 26.226105 2.360185 28.312244 3.693536 30.172933  C 5.026886 32.033621 6.68516 33.638496 8.588478 34.910252  C 10.491796 36.182009 12.609101 37.099894 14.838405 37.619694  C 17.067708 38.139495 19.372631 38.252728 21.642149 37.95394  C 23.911667 37.655152 26.108745 36.949219 28.127552 35.870144  C 30.146359 34.791068 31.953952 33.35646 33.463262 31.635422  C 34.972571 29.914384 36.158967 27.935001 36.965303 25.792618  C 37.771639 23.650234 38.184756 21.379809 38.184756 19.090708  L 19.158756 19.090711  L 35.635755 9.57771  z " style="fill:#a1dab4;stroke:#444443;stroke-linejoin:miter;stroke-width:0.5;" />
   </g>
   <g id="text_1">
    
    <defs>
     <path d="M 54.890625 33.015625  L 54.890625 0  L 45.90625 0  L 45.90625 32.71875  Q 45.90625 40.484375 42.875 44.328125  Q 39.84375 48.1875 33.796875 48.1875  Q 26.515625 48.1875 22.3125 43.546875  Q 18.109375 38.921875 18.109375 30.90625  L 18.109375 0  L 9.078125 0  L 9.078125 54.6875  L 18.109375 54.6875  L 18.109375 46.1875  Q 21.34375 51.125 25.703125 53.5625  Q 30.078125 56 35.796875 56  Q 45.21875 56 50.046875 50.171875  Q 54.890625 44.34375 54.890625 33.015625  z " id="DejaVuSans-110" />
     <path d="M 10.59375 45.40625  L 73.1875 45.40625  L 73.1875 37.203125  L 10.59375 37.203125  z M 10.59375 25.484375  L 73.1875 25.484375  L 73.1875 17.1875  L 10.59375 17.1875  z " id="DejaVuSans-61" />
     <path d="M 19.1875 8.296875  L 53.609375 8.296875  L 53.609375 0  L 7.328125 0  L 7.328125 8.296875  Q 12.9375 14.109375 22.625 23.890625  Q 32.328125 33.6875 34.8125 36.53125  Q 39.546875 41.84375 41.421875 45.53125  Q 43.3125 49.21875 43.3125 52.78125  Q 43.3125 58.59375 39.234375 62.25  Q 35.15625 65.921875 28.609375 65.921875  Q 23.96875 65.921875 18.8125 64.3125  Q 13.671875 62.703125 7.8125 59.421875  L 7.8125 69.390625  Q 13.765625 71.78125 18.9375 73  Q 24.125 74.21875 28.421875 74.21875  Q 39.75 74.21875 46.484375 68.546875  Q 53.21875 62.890625 53.21875 53.421875  Q 53.21875 48.921875 51.53125 44.890625  Q 49.859375 40.875 45.40625 35.40625  Q 44.1875 33.984375 37.640625 27.21875  Q 31.109375 20.453125 19.1875 8.296875  z " id="DejaVuSans-50" />
     <path d="M 37.796875 64.3125  L 12.890625 25.390625  L 37.796875 25.390625  z M 35.203125 72.90625  L 47.609375 72.90625  L 47.609375 25.390625  L 58.015625 25.390625  L 58.015625 17.1875  L 47.609375 17.1875  L 47.609375 0  L 37.796875 0  L 37.796875 17.1875  L 4.890625 17.1875  L 4.890625 26.703125  z " id="DejaVuSans-52" />
    </defs>
    <g style="fill:#444443;" transform="translate(6.809771 46.477384)scale(0.09 -0.09)">
     <use xlink:href="#DejaVuSans-110" />
     <use x="63.378906" xlink:href="#DejaVuSans-61" />
     <use x="147.167969" xlink:href="#DejaVuSans-50" />
     <use x="210.791016" xlink:href="#DejaVuSans-52" />
    </g>
    
    <defs>
     <path d="M 48.78125 52.59375  L 48.78125 44.1875  Q 44.96875 46.296875 41.140625 47.34375  Q 37.3125 48.390625 33.40625 48.390625  Q 24.65625 48.390625 19.8125 42.84375  Q 14.984375 37.3125 14.984375 27.296875  Q 14.984375 17.28125 19.8125 11.734375  Q 24.65625 6.203125 33.40625 6.203125  Q 37.3125 6.203125 41.140625 7.25  Q 44.96875 8.296875 48.78125 10.40625  L 48.78125 2.09375  Q 45.015625 0.34375 40.984375 -0.53125  Q 36.96875 -1.421875 32.421875 -1.421875  Q 20.0625 -1.421875 12.78125 6.34375  Q 5.515625 14.109375 5.515625 27.296875  Q 5.515625 40.671875 12.859375 48.328125  Q 20.21875 56 33.015625 56  Q 37.15625 56 41.109375 55.140625  Q 45.0625 54.296875 48.78125 52.59375  z " id="DejaVuSans-99" />
     <path d="M 9.421875 75.984375  L 18.40625 75.984375  L 18.40625 0  L 9.421875 0  z " id="DejaVuSans-108" />
     <path d="M 34.28125 27.484375  Q 23.390625 27.484375 19.1875 25  Q 14.984375 22.515625 14.984375 16.5  Q 14.984375 11.71875 18.140625 8.90625  Q 21.296875 6.109375 26.703125 6.109375  Q 34.1875 6.109375 38.703125 11.40625  Q 43.21875 16.703125 43.21875 25.484375  L 43.21875 27.484375  z M 52.203125 31.203125  L 52.203125 0  L 43.21875 0  L 43.21875 8.296875  Q 40.140625 3.328125 35.546875 0.953125  Q 30.953125 -1.421875 24.3125 -1.421875  Q 15.921875 -1.421875 10.953125 3.296875  Q 6 8.015625 6 15.921875  Q 6 25.140625 12.171875 29.828125  Q 18.359375 34.515625 30.609375 34.515625  L 43.21875 34.515625  L 43.21875 35.40625  Q 43.21875 41.609375 39.140625 45  Q 35.0625 48.390625 27.6875 48.390625  Q 23 48.390625 18.546875 47.265625  Q 14.109375 46.140625 10.015625 43.890625  L 10.015625 52.203125  Q 14.9375 54.109375 19.578125 55.046875  Q 24.21875 56 28.609375 56  Q 40.484375 56 46.34375 49.84375  Q 52.203125 43.703125 52.203125 31.203125  z " id="DejaVuSans-97" />
     <path d="M 44.28125 53.078125  L 44.28125 44.578125  Q 40.484375 46.53125 36.375 47.5  Q 32.28125 48.484375 27.875 48.484375  Q 21.1875 48.484375 17.84375 46.4375  Q 14.5 44.390625 14.5 40.28125  Q 14.5 37.15625 16.890625 35.375  Q 19.28125 33.59375 26.515625 31.984375  L 29.59375 31.296875  Q 39.15625 29.25 43.1875 25.515625  Q 47.21875 21.78125 47.21875 15.09375  Q 47.21875 7.46875 41.1875 3.015625  Q 35.15625 -1.421875 24.609375 -1.421875  Q 20.21875 -1.421875 15.453125 -0.5625  Q 10.6875 0.296875 5.421875 2  L 5.421875 11.28125  Q 10.40625 8.6875 15.234375 7.390625  Q 20.0625 6.109375 24.8125 6.109375  Q 31.15625 6.109375 34.5625 8.28125  Q 37.984375 10.453125 37.984375 14.40625  Q 37.984375 18.0625 35.515625 20.015625  Q 33.0625 21.96875 24.703125 23.78125  L 21.578125 24.515625  Q 13.234375 26.265625 9.515625 29.90625  Q 5.8125 33.546875 5.8125 39.890625  Q 5.8125 47.609375 11.28125 51.796875  Q 16.75 56 26.8125 56  Q 31.78125 56 36.171875 55.265625  Q 40.578125 54.546875 44.28125 53.078125  z " id="DejaVuSans-115" />
     <path id="DejaVuSans-32" />
     <path d="M 12.40625 8.296875  L 28.515625 8.296875  L 28.515625 63.921875  L 10.984375 60.40625  L 10.984375 69.390625  L 28.421875 72.90625  L 38.28125 72.90625  L 38.28125 8.296875  L 54.390625 8.296875  L 54.390625 0  L 12.40625 0  z " id="DejaVuSans-49" />
    </defs>
    <g style="fill:#444443;" transform="translate(3.694928 56.555416)scale(0.09 -0.09)">
     <use xlink:href="#DejaVuSans-99" />
     <use x="54.980469" xlink:href="#DejaVuSans-108" />
     <use x="82.763672" xlink:href="#DejaVuSans-97" />
     <use x="144.042969" xlink:href="#DejaVuSans-115" />
     <use x="196.142578" xlink:href="#DejaVuSans-115" />
     <use x="248.242188" xlink:href="#DejaVuSans-32" />
     <use x="280.029297" xlink:href="#DejaVuSans-49" />
    </g>
   </g>
  </g>
 </g>
</svg></g>

<g class="edge" id="edge11">
<title>node8-&gt;leaf10</title>
<path d="M291.2549,-117.8105C294.9287,-106.9114 302.4268,-84.6671 308.7029,-66.0482" fill="none" stroke="#444443" stroke-width=".3" />
<polygon fill="#444443" points="310.1526,-66.1301 310.1037,-61.8924 307.4993,-65.2357 310.1526,-66.1301" stroke="#444443" stroke-width=".3" />
</g>

<g class="edge" id="edge14">
<title>node2-&gt;node8</title>
<path d="M224.9804,-177.8497C237.779,-167.1841 262.9431,-146.2141 277.6219,-133.9817" fill="none" stroke="#444443" stroke-width=".3" />
<polygon fill="#444443" points="278.586,-135.0008 280.7626,-131.3645 276.7934,-132.8497 278.586,-135.0008" stroke="#444443" stroke-width=".3" />
</g>

<g class="node" id="node13">
<title>leaf7</title>
<polygon fill="none" points="244.5,-161 187.5,-161 187.5,-88 244.5,-88 244.5,-161" stroke="#444443" stroke-width="0" />
<svg height="65px" preserveAspectRatio="xMinYMin meet" version="1.1" viewBox="0 0 65.068933 86.601434" width="49px" x="192" y="-156.5">
 <defs>
  <style type="text/css">
*{stroke-linecap:butt;stroke-linejoin:round;}
  </style>
 </defs>
 <g id="figure_1">
  <g id="patch_1">
   <path d="M 0 86.601434  L 65.068933 86.601434  L 65.068933 0  L 0 0  z " style="fill:#ffffff;" />
  </g>
  <g id="axes_1">
   <g id="patch_2">
    <path d="M 65.068932 32.913971  C 65.068932 26.617524 63.228619 20.456273 59.775321 15.191297  C 56.322023 9.92632 51.404037 5.783716 45.628865 3.275205  C 39.853693 0.766693 33.469341 -0 27.264448 1.069832  C 21.059554 2.139664 15.30058 5.000078 10.69891 9.297737  L 32.754932 32.913971  L 65.068932 32.913971  z " style="fill:#fefebb;stroke:#444443;stroke-linejoin:miter;stroke-width:0.5;" />
   </g>
   <g id="patch_3">
    <path d="M 10.69891 9.297737  C 6.781312 12.956518 3.835001 17.533254 2.126398 22.614093  C 0.417795 27.694931 0 33.121967 0.910794 38.404456  C 1.821587 43.686946 4.032663 48.660719 7.344082 52.876017  C 10.655502 57.091316 14.964352 60.417136 19.881002 62.552738  C 24.797652 64.68834 30.1693 65.567352 35.510212 65.110291  C 40.851124 64.653229 45.995312 62.874298 50.47761 59.934357  C 54.959908 56.994417 58.641013 52.984837 61.188059 48.268185  C 63.735105 43.551534 65.068933 38.274398 65.068932 32.913965  L 32.754932 32.913971  L 10.69891 9.297737  z " style="fill:#a1dab4;stroke:#444443;stroke-linejoin:miter;stroke-width:0.5;" />
   </g>
   <g id="text_1">
    
    <defs>
     <path d="M 54.890625 33.015625  L 54.890625 0  L 45.90625 0  L 45.90625 32.71875  Q 45.90625 40.484375 42.875 44.328125  Q 39.84375 48.1875 33.796875 48.1875  Q 26.515625 48.1875 22.3125 43.546875  Q 18.109375 38.921875 18.109375 30.90625  L 18.109375 0  L 9.078125 0  L 9.078125 54.6875  L 18.109375 54.6875  L 18.109375 46.1875  Q 21.34375 51.125 25.703125 53.5625  Q 30.078125 56 35.796875 56  Q 45.21875 56 50.046875 50.171875  Q 54.890625 44.34375 54.890625 33.015625  z " id="DejaVuSans-110" />
     <path d="M 10.59375 45.40625  L 73.1875 45.40625  L 73.1875 37.203125  L 10.59375 37.203125  z M 10.59375 25.484375  L 73.1875 25.484375  L 73.1875 17.1875  L 10.59375 17.1875  z " id="DejaVuSans-61" />
     <path d="M 37.796875 64.3125  L 12.890625 25.390625  L 37.796875 25.390625  z M 35.203125 72.90625  L 47.609375 72.90625  L 47.609375 25.390625  L 58.015625 25.390625  L 58.015625 17.1875  L 47.609375 17.1875  L 47.609375 0  L 37.796875 0  L 37.796875 17.1875  L 4.890625 17.1875  L 4.890625 26.703125  z " id="DejaVuSans-52" />
     <path d="M 33.015625 40.375  Q 26.375 40.375 22.484375 35.828125  Q 18.609375 31.296875 18.609375 23.390625  Q 18.609375 15.53125 22.484375 10.953125  Q 26.375 6.390625 33.015625 6.390625  Q 39.65625 6.390625 43.53125 10.953125  Q 47.40625 15.53125 47.40625 23.390625  Q 47.40625 31.296875 43.53125 35.828125  Q 39.65625 40.375 33.015625 40.375  z M 52.59375 71.296875  L 52.59375 62.3125  Q 48.875 64.0625 45.09375 64.984375  Q 41.3125 65.921875 37.59375 65.921875  Q 27.828125 65.921875 22.671875 59.328125  Q 17.53125 52.734375 16.796875 39.40625  Q 19.671875 43.65625 24.015625 45.921875  Q 28.375 48.1875 33.59375 48.1875  Q 44.578125 48.1875 50.953125 41.515625  Q 57.328125 34.859375 57.328125 23.390625  Q 57.328125 12.15625 50.6875 5.359375  Q 44.046875 -1.421875 33.015625 -1.421875  Q 20.359375 -1.421875 13.671875 8.265625  Q 6.984375 17.96875 6.984375 36.375  Q 6.984375 53.65625 15.1875 63.9375  Q 23.390625 74.21875 37.203125 74.21875  Q 40.921875 74.21875 44.703125 73.484375  Q 48.484375 72.75 52.59375 71.296875  z " id="DejaVuSans-54" />
    </defs>
    <g style="fill:#444443;" transform="translate(20.405948 74.651684)scale(0.09 -0.09)">
     <use xlink:href="#DejaVuSans-110" />
     <use x="63.378906" xlink:href="#DejaVuSans-61" />
     <use x="147.167969" xlink:href="#DejaVuSans-52" />
     <use x="210.791016" xlink:href="#DejaVuSans-54" />
    </g>
    
    <defs>
     <path d="M 48.78125 52.59375  L 48.78125 44.1875  Q 44.96875 46.296875 41.140625 47.34375  Q 37.3125 48.390625 33.40625 48.390625  Q 24.65625 48.390625 19.8125 42.84375  Q 14.984375 37.3125 14.984375 27.296875  Q 14.984375 17.28125 19.8125 11.734375  Q 24.65625 6.203125 33.40625 6.203125  Q 37.3125 6.203125 41.140625 7.25  Q 44.96875 8.296875 48.78125 10.40625  L 48.78125 2.09375  Q 45.015625 0.34375 40.984375 -0.53125  Q 36.96875 -1.421875 32.421875 -1.421875  Q 20.0625 -1.421875 12.78125 6.34375  Q 5.515625 14.109375 5.515625 27.296875  Q 5.515625 40.671875 12.859375 48.328125  Q 20.21875 56 33.015625 56  Q 37.15625 56 41.109375 55.140625  Q 45.0625 54.296875 48.78125 52.59375  z " id="DejaVuSans-99" />
     <path d="M 9.421875 75.984375  L 18.40625 75.984375  L 18.40625 0  L 9.421875 0  z " id="DejaVuSans-108" />
     <path d="M 34.28125 27.484375  Q 23.390625 27.484375 19.1875 25  Q 14.984375 22.515625 14.984375 16.5  Q 14.984375 11.71875 18.140625 8.90625  Q 21.296875 6.109375 26.703125 6.109375  Q 34.1875 6.109375 38.703125 11.40625  Q 43.21875 16.703125 43.21875 25.484375  L 43.21875 27.484375  z M 52.203125 31.203125  L 52.203125 0  L 43.21875 0  L 43.21875 8.296875  Q 40.140625 3.328125 35.546875 0.953125  Q 30.953125 -1.421875 24.3125 -1.421875  Q 15.921875 -1.421875 10.953125 3.296875  Q 6 8.015625 6 15.921875  Q 6 25.140625 12.171875 29.828125  Q 18.359375 34.515625 30.609375 34.515625  L 43.21875 34.515625  L 43.21875 35.40625  Q 43.21875 41.609375 39.140625 45  Q 35.0625 48.390625 27.6875 48.390625  Q 23 48.390625 18.546875 47.265625  Q 14.109375 46.140625 10.015625 43.890625  L 10.015625 52.203125  Q 14.9375 54.109375 19.578125 55.046875  Q 24.21875 56 28.609375 56  Q 40.484375 56 46.34375 49.84375  Q 52.203125 43.703125 52.203125 31.203125  z " id="DejaVuSans-97" />
     <path d="M 44.28125 53.078125  L 44.28125 44.578125  Q 40.484375 46.53125 36.375 47.5  Q 32.28125 48.484375 27.875 48.484375  Q 21.1875 48.484375 17.84375 46.4375  Q 14.5 44.390625 14.5 40.28125  Q 14.5 37.15625 16.890625 35.375  Q 19.28125 33.59375 26.515625 31.984375  L 29.59375 31.296875  Q 39.15625 29.25 43.1875 25.515625  Q 47.21875 21.78125 47.21875 15.09375  Q 47.21875 7.46875 41.1875 3.015625  Q 35.15625 -1.421875 24.609375 -1.421875  Q 20.21875 -1.421875 15.453125 -0.5625  Q 10.6875 0.296875 5.421875 2  L 5.421875 11.28125  Q 10.40625 8.6875 15.234375 7.390625  Q 20.0625 6.109375 24.8125 6.109375  Q 31.15625 6.109375 34.5625 8.28125  Q 37.984375 10.453125 37.984375 14.40625  Q 37.984375 18.0625 35.515625 20.015625  Q 33.0625 21.96875 24.703125 23.78125  L 21.578125 24.515625  Q 13.234375 26.265625 9.515625 29.90625  Q 5.8125 33.546875 5.8125 39.890625  Q 5.8125 47.609375 11.28125 51.796875  Q 16.75 56 26.8125 56  Q 31.78125 56 36.171875 55.265625  Q 40.578125 54.546875 44.28125 53.078125  z " id="DejaVuSans-115" />
     <path id="DejaVuSans-32" />
     <path d="M 12.40625 8.296875  L 28.515625 8.296875  L 28.515625 63.921875  L 10.984375 60.40625  L 10.984375 69.390625  L 28.421875 72.90625  L 38.28125 72.90625  L 38.28125 8.296875  L 54.390625 8.296875  L 54.390625 0  L 12.40625 0  z " id="DejaVuSans-49" />
    </defs>
    <g style="fill:#444443;" transform="translate(17.291104 84.729716)scale(0.09 -0.09)">
     <use xlink:href="#DejaVuSans-99" />
     <use x="54.980469" xlink:href="#DejaVuSans-108" />
     <use x="82.763672" xlink:href="#DejaVuSans-97" />
     <use x="144.042969" xlink:href="#DejaVuSans-115" />
     <use x="196.142578" xlink:href="#DejaVuSans-115" />
     <use x="248.242188" xlink:href="#DejaVuSans-32" />
     <use x="280.029297" xlink:href="#DejaVuSans-49" />
    </g>
   </g>
  </g>
 </g>
</svg></g>

<g class="edge" id="edge13">
<title>node2-&gt;leaf7</title>
<path d="M216.8853,-177.6172C216.8292,-174.2505 216.7566,-169.8982 216.6773,-165.1351" fill="none" stroke="#444443" stroke-width=".3" />
<polygon fill="#444443" points="218.0757,-165.0261 216.6092,-161.05 215.2761,-165.0728 218.0757,-165.0261" stroke="#444443" stroke-width=".3" />
</g>

<g class="node" id="node6">
<title>node0</title>
<text fill="#444443" font-family="Helvetica,sans-Serif" font-size="12.00" text-anchor="start" x="161.5" y="-241.4">T@6.53</text>
</g>

<g class="edge" id="edge16">
<title>node0-&gt;node1</title>
<path d="M179.2145,-237.6172C173.4457,-227.1285 162.4156,-207.0738 155.6824,-194.8317" fill="none" stroke="#444443" stroke-width=".3" />
<polygon fill="#444443" points="156.8958,-194.1327 153.7414,-191.3025 154.4424,-195.4821 156.8958,-194.1327" stroke="#444443" stroke-width=".3" />
<text fill="#000000" font-family="Times,serif" font-size="14.00" text-anchor="start" x="166" y="-202.8">&#8804;</text>
</g>

<g class="edge" id="edge17">
<title>node0-&gt;node2</title>
<path d="M186.9002,-237.6172C192.8439,-227.1285 204.2082,-207.0738 211.1454,-194.8317" fill="none" stroke="#444443" stroke-width=".3" />
<polygon fill="#444443" points="212.3912,-195.4728 213.1453,-191.3025 209.9551,-194.0924 212.3912,-195.4728" stroke="#444443" stroke-width=".3" />
<text fill="#000000" font-family="Times,serif" font-size="14.00" text-anchor="start" x="208" y="-202.8">&gt;</text>
</g>





<g class="node" id="node14">
<title>legend</title>
<polygon fill="none" points="300.5,-267 235.5,-267 235.5,-222 300.5,-222 300.5,-267" stroke="#000000" stroke-width="0" />
<svg height="41px" preserveAspectRatio="xMinYMin meet" version="1.1" viewBox="0 0 81.764063 54.36" width="61px" x="238" y="-264.5">
 <defs>
  <style type="text/css">
*{stroke-linecap:butt;stroke-linejoin:round;}
  </style>
 </defs>
 <g id="figure_1">
  <g id="patch_1">
   <path d="M 0 54.36  L 81.764063 54.36  L 81.764063 0  L 0 0  z " style="fill:#ffffff;" />
  </g>
  <g id="axes_1">
   <g id="legend_1">
    <g id="patch_2">
     <path d="M 2.4 50.259687  L 79.364063 50.259687  Q 81.764063 50.259687 81.764063 47.859687  L 81.764063 6.500312  Q 81.764063 4.100312 79.364063 4.100312  L 2.4 4.100312  Q 0 4.100312 0 6.500312  L 0 47.859687  Q 0 50.259687 2.4 50.259687  z " style="fill:#eaeaf2;opacity:0.8;stroke:#444443;stroke-linejoin:miter;stroke-width:0.5;" />
    </g>
    <g id="patch_3">
     <path d="M 9.6 22.100312  L 33.6 22.100312  L 33.6 13.700312  L 9.6 13.700312  z " style="fill:#fefebb;stroke:#444443;stroke-linejoin:miter;stroke-width:0.4;" />
    </g>
    <g id="text_1">
     
     <defs>
      <path d="M 48.78125 52.59375  L 48.78125 44.1875  Q 44.96875 46.296875 41.140625 47.34375  Q 37.3125 48.390625 33.40625 48.390625  Q 24.65625 48.390625 19.8125 42.84375  Q 14.984375 37.3125 14.984375 27.296875  Q 14.984375 17.28125 19.8125 11.734375  Q 24.65625 6.203125 33.40625 6.203125  Q 37.3125 6.203125 41.140625 7.25  Q 44.96875 8.296875 48.78125 10.40625  L 48.78125 2.09375  Q 45.015625 0.34375 40.984375 -0.53125  Q 36.96875 -1.421875 32.421875 -1.421875  Q 20.0625 -1.421875 12.78125 6.34375  Q 5.515625 14.109375 5.515625 27.296875  Q 5.515625 40.671875 12.859375 48.328125  Q 20.21875 56 33.015625 56  Q 37.15625 56 41.109375 55.140625  Q 45.0625 54.296875 48.78125 52.59375  z " id="DejaVuSans-99" />
      <path d="M 9.421875 75.984375  L 18.40625 75.984375  L 18.40625 0  L 9.421875 0  z " id="DejaVuSans-108" />
      <path d="M 34.28125 27.484375  Q 23.390625 27.484375 19.1875 25  Q 14.984375 22.515625 14.984375 16.5  Q 14.984375 11.71875 18.140625 8.90625  Q 21.296875 6.109375 26.703125 6.109375  Q 34.1875 6.109375 38.703125 11.40625  Q 43.21875 16.703125 43.21875 25.484375  L 43.21875 27.484375  z M 52.203125 31.203125  L 52.203125 0  L 43.21875 0  L 43.21875 8.296875  Q 40.140625 3.328125 35.546875 0.953125  Q 30.953125 -1.421875 24.3125 -1.421875  Q 15.921875 -1.421875 10.953125 3.296875  Q 6 8.015625 6 15.921875  Q 6 25.140625 12.171875 29.828125  Q 18.359375 34.515625 30.609375 34.515625  L 43.21875 34.515625  L 43.21875 35.40625  Q 43.21875 41.609375 39.140625 45  Q 35.0625 48.390625 27.6875 48.390625  Q 23 48.390625 18.546875 47.265625  Q 14.109375 46.140625 10.015625 43.890625  L 10.015625 52.203125  Q 14.9375 54.109375 19.578125 55.046875  Q 24.21875 56 28.609375 56  Q 40.484375 56 46.34375 49.84375  Q 52.203125 43.703125 52.203125 31.203125  z " id="DejaVuSans-97" />
      <path d="M 44.28125 53.078125  L 44.28125 44.578125  Q 40.484375 46.53125 36.375 47.5  Q 32.28125 48.484375 27.875 48.484375  Q 21.1875 48.484375 17.84375 46.4375  Q 14.5 44.390625 14.5 40.28125  Q 14.5 37.15625 16.890625 35.375  Q 19.28125 33.59375 26.515625 31.984375  L 29.59375 31.296875  Q 39.15625 29.25 43.1875 25.515625  Q 47.21875 21.78125 47.21875 15.09375  Q 47.21875 7.46875 41.1875 3.015625  Q 35.15625 -1.421875 24.609375 -1.421875  Q 20.21875 -1.421875 15.453125 -0.5625  Q 10.6875 0.296875 5.421875 2  L 5.421875 11.28125  Q 10.40625 8.6875 15.234375 7.390625  Q 20.0625 6.109375 24.8125 6.109375  Q 31.15625 6.109375 34.5625 8.28125  Q 37.984375 10.453125 37.984375 14.40625  Q 37.984375 18.0625 35.515625 20.015625  Q 33.0625 21.96875 24.703125 23.78125  L 21.578125 24.515625  Q 13.234375 26.265625 9.515625 29.90625  Q 5.8125 33.546875 5.8125 39.890625  Q 5.8125 47.609375 11.28125 51.796875  Q 16.75 56 26.8125 56  Q 31.78125 56 36.171875 55.265625  Q 40.578125 54.546875 44.28125 53.078125  z " id="DejaVuSans-115" />
      <path id="DejaVuSans-32" />
      <path d="M 31.78125 66.40625  Q 24.171875 66.40625 20.328125 58.90625  Q 16.5 51.421875 16.5 36.375  Q 16.5 21.390625 20.328125 13.890625  Q 24.171875 6.390625 31.78125 6.390625  Q 39.453125 6.390625 43.28125 13.890625  Q 47.125 21.390625 47.125 36.375  Q 47.125 51.421875 43.28125 58.90625  Q 39.453125 66.40625 31.78125 66.40625  z M 31.78125 74.21875  Q 44.046875 74.21875 50.515625 64.515625  Q 56.984375 54.828125 56.984375 36.375  Q 56.984375 17.96875 50.515625 8.265625  Q 44.046875 -1.421875 31.78125 -1.421875  Q 19.53125 -1.421875 13.0625 8.265625  Q 6.59375 17.96875 6.59375 36.375  Q 6.59375 54.828125 13.0625 64.515625  Q 19.53125 74.21875 31.78125 74.21875  z " id="DejaVuSans-48" />
     </defs>
     <g style="fill:#444443;" transform="translate(37.8 22.100312)scale(0.1 -0.1)">
      <use xlink:href="#DejaVuSans-99" />
      <use x="54.980469" xlink:href="#DejaVuSans-108" />
      <use x="82.763672" xlink:href="#DejaVuSans-97" />
      <use x="144.042969" xlink:href="#DejaVuSans-115" />
      <use x="196.142578" xlink:href="#DejaVuSans-115" />
      <use x="248.242188" xlink:href="#DejaVuSans-32" />
      <use x="280.029297" xlink:href="#DejaVuSans-48" />
     </g>
    </g>
    <g id="patch_4">
     <path d="M 9.6 38.58  L 33.6 38.58  L 33.6 30.18  L 9.6 30.18  z " style="fill:#a1dab4;stroke:#444443;stroke-linejoin:miter;stroke-width:0.4;" />
    </g>
    <g id="text_2">
     
     <defs>
      <path d="M 12.40625 8.296875  L 28.515625 8.296875  L 28.515625 63.921875  L 10.984375 60.40625  L 10.984375 69.390625  L 28.421875 72.90625  L 38.28125 72.90625  L 38.28125 8.296875  L 54.390625 8.296875  L 54.390625 0  L 12.40625 0  z " id="DejaVuSans-49" />
     </defs>
     <g style="fill:#444443;" transform="translate(37.8 38.58)scale(0.1 -0.1)">
      <use xlink:href="#DejaVuSans-99" />
      <use x="54.980469" xlink:href="#DejaVuSans-108" />
      <use x="82.763672" xlink:href="#DejaVuSans-97" />
      <use x="144.042969" xlink:href="#DejaVuSans-115" />
      <use x="196.142578" xlink:href="#DejaVuSans-115" />
      <use x="248.242188" xlink:href="#DejaVuSans-32" />
      <use x="280.029297" xlink:href="#DejaVuSans-49" />
     </g>
    </g>
   </g>
  </g>
 </g>
</svg></g>
</g>
</svg>